<svg xmlns="http://www.w3.org/2000/svg" xml:space="preserve" id="Icons" width="800" height="800" fill="#000" viewBox="0 0 32 32"><g id="SVGRepo_iconCarrier"><path d="M25 18H7c-1.1 0-2-.9-2-2v0c0-1.1.9-2 2-2h18c1.1 0 2 .9 2 2v0c0 1.1-.9 2-2 2m0 0c0 5-4 9-9 9s-9-4-9-9" style="fill:none;stroke:#05f;stroke-width:2;stroke-linecap:round;stroke-linejoin:round;stroke-miterlimit:10"/><path d="m21.7 25 1.3 6H9l1.3-6M24 14H8V5c0-2.2 1.8-4 4-4h8c2.2 0 4 1.8 4 4zM12 5h2" style="fill:none;stroke:#05f;stroke-width:2;stroke-linecap:round;stroke-linejoin:round;stroke-miterlimit:10"/></g></svg>