<svg xmlns="http://www.w3.org/2000/svg" width="800" height="800" viewBox="0 0 1024 1024"><path fill="#0f1f3c" d="M182.52 146.2h585.14v256h73.15V73.06H109.38v877.71h256v-73.14H182.52z"/><path fill="#0f1f3c" d="M255.67 219.34h438.86v73.14H255.67zm0 146.29h365.71v73.14H255.67zm0 146.28H475.1v73.14H255.67zm519.55-53.67L439.04 794.42l-.52 154.64 155.68.52L930.38 613.4zm51.72 155.16-25.43 25.43-51.73-51.72 25.44-25.44zm-77.14 77.15L620.58 819.77l-51.72-51.72 129.22-129.22zM511.91 876.16l.17-51.34 5.06-5.06 51.72 51.72-4.85 4.85z"/></svg>