<svg xmlns="http://www.w3.org/2000/svg" width="800" height="800" fill="none" viewBox="0 0 28 28"><path fill="#000" fill-rule="evenodd" d="M1 20a2 2 0 0 1 2-2h3a2 2 0 0 1 2 2v5a2 2 0 0 1-2 2H3a2 2 0 0 1-2-2zm5 .4a.4.4 0 0 0-.4-.4H3.4a.4.4 0 0 0-.4.4v4.2c0 .22.18.4.4.4h2.2a.4.4 0 0 0 .4-.4zM10 3a2 2 0 0 1 2-2h3a2 2 0 0 1 2 2v22a2 2 0 0 1-2 2h-3a2 2 0 0 1-2-2zm5 .4a.4.4 0 0 0-.4-.4h-2.2a.4.4 0 0 0-.4.4v21.2c0 .22.18.4.4.4h2.2a.4.4 0 0 0 .4-.4zm4 7.6a2 2 0 0 1 2-2h3a2 2 0 0 1 2 2v14a2 2 0 0 1-2 2h-3a2 2 0 0 1-2-2zm5 .4a.4.4 0 0 0-.4-.4h-2.2a.4.4 0 0 0-.4.4v13.2c0 .22.18.4.4.4h2.2a.4.4 0 0 0 .4-.4z" clip-rule="evenodd"/></svg>