<svg xmlns="http://www.w3.org/2000/svg" xml:space="preserve" id="Layer_1" width="800" height="800" fill="#000" baseProfile="tiny" viewBox="0 0 256 256"><path id="XMLID_7_" d="M123.5 127c2.7-2.5 6-3.9 9.4-3.9H251v15.8H136.9c-3.9 0-6 2.2-7.2 3.3-5 4.7-38.5 35.5-38.5 35.5l-10.1-9.9c0 .1 37.7-36.4 42.4-40.8m67.6-85.9c13.4 0 20.7-9.3 20.7-20.7S202.5-.3 191.1-.3 170.4 9 170.4 20.4s9.3 20.7 20.7 20.7m-30.7 35.5h6.9l-10.2 36.5H225l-10.2-36.5h6.9l10.5 36.5h17.9l-14.4-48.4c-1.9-6.7-10.4-18.5-25-18.5h-39.4c-14.6 0-23.1 11.9-25 18.5L132 113.1h17.9zm-58.6 34.6L93 94.8l-9.4-17.6s-1.1-1.6-3.1-.7c-1.8.9-1 2.9-1 2.9l6 11.5 3.8 7.2-4.3-2c-7.7-3.5-11.9-4.9-13.6-5.7-.3-.1-1.8-1-2.5-2.5-2-4.5-10.6-26.2-12.5-31-1.6-4.1-5.6-9.8-13.9-11.9-9.4-2.3-18.9 3.6-21.1 13L8.6 112.2c-1.1 4.4-3.1 16.2-3.1 21.1 0 5 .1 105.6.1 105.6 0 9 6.4 16.1 15.3 16.1s15-7.3 14.9-16.2v-89.5l13.7-57.7c1.6 3.9 3.6 8.7 4.2 9.8 1.6 2.7 3.1 4.6 6.2 6 0 0 17.9 7.4 24.8 10.6 4.2 1.6 8.7.2 11.3-3.1l1-2 .3.6s2 3.6 5.1 3.8c.9-2.8-.6-6.1-.6-6.1m-27.7-91C74.1 8.8 64.8-.5 53.4-.5 42-.4 32.8 8.8 32.8 20.2s9.3 20.7 20.7 20.7 20.6-9.2 20.6-20.7m9.3 135 40.3-37.5-5.2-5.6-40.3 37.5z"/></svg>